<svg width="34" height="34" viewBox="0 0 34 34" fill="none" xmlns="http://www.w3.org/2000/svg">
<path d="M0 6.375V8.5H20.1875V24.4375H13.6467C13.1729 22.6111 11.5302 21.25 9.5625 21.25C7.59475 21.25 5.95213 22.6111 5.47825 24.4375H4.25V19.125H2.125V26.5625H5.47825C5.95213 28.3889 7.59475 29.75 9.5625 29.75C11.5302 29.75 13.1729 28.3889 13.6467 26.5625H22.4783C22.9521 28.3889 24.5948 29.75 26.5625 29.75C28.5302 29.75 30.1729 28.3889 30.6467 26.5625H34V17.8967L33.9331 17.7299L31.8081 11.3549L31.5775 10.625H22.3125V6.375H0ZM1.0625 10.625V12.75H10.625V10.625H1.0625ZM22.3125 12.75H30.0486L31.875 18.1953V24.4375H30.6467C30.1729 22.6111 28.5302 21.25 26.5625 21.25C24.5948 21.25 22.9521 22.6111 22.4783 24.4375H22.3125V12.75ZM2.125 14.875V17H8.5V14.875H2.125ZM9.5625 23.375C10.7493 23.375 11.6875 24.3132 11.6875 25.5C11.6875 26.6868 10.7493 27.625 9.5625 27.625C8.37569 27.625 7.4375 26.6868 7.4375 25.5C7.4375 24.3132 8.37569 23.375 9.5625 23.375ZM26.5625 23.375C27.7493 23.375 28.6875 24.3132 28.6875 25.5C28.6875 26.6868 27.7493 27.625 26.5625 27.625C25.3757 27.625 24.4375 26.6868 24.4375 25.5C24.4375 24.3132 25.3757 23.375 26.5625 23.375Z" fill="#87A9BC"/>
</svg>
