<svg width="34" height="34" viewBox="0 0 34 34" fill="none" xmlns="http://www.w3.org/2000/svg">
<path d="M11.6875 3.1875V7.4375H13.8125V3.1875H11.6875ZM15.9375 4.25V7.4375H18.0625V4.25H15.9375ZM5.17969 8.5L5.3125 9.66237L7.23881 27.9565C7.40881 29.5715 8.80281 30.8125 10.4263 30.8125H20.3862C22.0097 30.8125 23.4037 29.5715 23.5737 27.9565L24.0731 23.375H26.5625C28.3103 23.375 29.75 21.9353 29.75 20.1875V17C29.75 15.2522 28.3103 13.8125 26.5625 13.8125H25.0686L25.5 9.66237L25.6328 8.5H5.17969ZM7.57031 10.625H23.2422L21.4487 27.7249C21.4237 27.989 21.3009 28.2343 21.1043 28.4124C20.9077 28.5905 20.6515 28.6887 20.3862 28.6875H10.4263C9.87487 28.6875 9.42225 28.2763 9.36381 27.7249L7.57031 10.625ZM24.8359 15.9375H26.5625C27.1639 15.9375 27.625 16.3986 27.625 17V20.1875C27.625 20.7889 27.1639 21.25 26.5625 21.25H24.2717L24.8359 15.9375Z" fill="#87A9BC"/>
</svg>
