<svg width="34" height="34" viewBox="0 0 34 34" fill="none" xmlns="http://www.w3.org/2000/svg">
<path d="M20.1875 6.375C18.4397 6.375 17 7.81469 17 9.5625H10.625V22.3125H29.75V9.5625H23.375C23.375 7.81469 21.9353 6.375 20.1875 6.375ZM4.25 7.4375V9.5625H5.3125C5.90219 9.5625 6.375 10.0353 6.375 10.625V22.3125C6.375 24.6606 8.27688 26.5625 10.625 26.5625H29.75V24.4375H10.625C9.35956 24.4375 8.5 23.5779 8.5 22.3125V10.625C8.5 8.87719 7.06031 7.4375 5.3125 7.4375H4.25ZM26.0312 26.5625C25.6086 26.5625 25.2032 26.7304 24.9043 27.0293C24.6054 27.3282 24.4375 27.7336 24.4375 28.1562C24.4375 28.5789 24.6054 28.9843 24.9043 29.2832C25.2032 29.5821 25.6086 29.75 26.0312 29.75C26.4539 29.75 26.8593 29.5821 27.1582 29.2832C27.4571 28.9843 27.625 28.5789 27.625 28.1562C27.625 27.7336 27.4571 27.3282 27.1582 27.0293C26.8593 26.7304 26.4539 26.5625 26.0312 26.5625ZM13.2812 26.5625C12.8586 26.5625 12.4532 26.7304 12.1543 27.0293C11.8554 27.3282 11.6875 27.7336 11.6875 28.1562C11.6875 28.5789 11.8554 28.9843 12.1543 29.2832C12.4532 29.5821 12.8586 29.75 13.2812 29.75C13.7039 29.75 14.1093 29.5821 14.4082 29.2832C14.7071 28.9843 14.875 28.5789 14.875 28.1562C14.875 27.7336 14.7071 27.3282 14.4082 27.0293C14.1093 26.7304 13.7039 26.5625 13.2812 26.5625ZM20.1875 8.5C20.7772 8.5 21.25 8.97281 21.25 9.5625H19.125C19.125 8.97281 19.5978 8.5 20.1875 8.5ZM12.75 11.6875H27.625V20.1875H12.75V11.6875Z" fill="#87A9BC"/>
</svg>
