<svg width="118" height="17" viewBox="0 0 118 17" fill="none" xmlns="http://www.w3.org/2000/svg">
<path d="M13.5816 15.9375C13.4698 15.938 13.3607 15.9031 13.2698 15.8379L8.99958 12.7421L4.72933 15.8379C4.6381 15.9041 4.52818 15.9395 4.41548 15.9391C4.30278 15.9387 4.19313 15.9025 4.10238 15.8356C4.01164 15.7688 3.94449 15.6748 3.91066 15.5673C3.87683 15.4598 3.87807 15.3444 3.91419 15.2376L5.57966 10.3046L1.26325 7.34455C1.16976 7.28051 1.09919 7.18824 1.06187 7.08123C1.02454 6.97423 1.02241 6.85809 1.05579 6.74979C1.08917 6.64149 1.15631 6.5467 1.2474 6.47927C1.33849 6.41185 1.44875 6.37532 1.56208 6.37502H6.8872L8.49423 1.42941C8.52885 1.32264 8.5964 1.22957 8.68719 1.16357C8.77797 1.09756 8.88733 1.06201 8.99958 1.06201C9.11183 1.06201 9.22119 1.09756 9.31198 1.16357C9.40277 1.22957 9.47031 1.32264 9.50493 1.42941L11.112 6.37668H16.4371C16.5506 6.37662 16.6611 6.4129 16.7524 6.4802C16.8438 6.54749 16.9112 6.64227 16.9448 6.75066C16.9784 6.85904 16.9764 6.97533 16.9391 7.0825C16.9018 7.18967 16.8312 7.28208 16.7376 7.34621L12.4195 10.3046L14.084 15.2363C14.1109 15.3161 14.1185 15.4012 14.1061 15.4846C14.0937 15.5679 14.0616 15.6471 14.0125 15.7157C13.9634 15.7842 13.8988 15.84 13.8238 15.8786C13.7489 15.9172 13.6659 15.9374 13.5816 15.9375Z" fill="#171D20"/>
<path d="M38.5816 15.9375C38.4698 15.938 38.3607 15.9031 38.2698 15.8379L33.9996 12.7421L29.7293 15.8379C29.6381 15.9041 29.5282 15.9395 29.4155 15.9391C29.3028 15.9387 29.1931 15.9025 29.1024 15.8356C29.0116 15.7688 28.9445 15.6748 28.9107 15.5673C28.8768 15.4598 28.8781 15.3444 28.9142 15.2376L30.5797 10.3046L26.2633 7.34455C26.1698 7.28051 26.0992 7.18824 26.0619 7.08123C26.0245 6.97423 26.0224 6.85809 26.0558 6.74979C26.0892 6.64149 26.1563 6.5467 26.2474 6.47927C26.3385 6.41185 26.4488 6.37532 26.5621 6.37502H31.8872L33.4942 1.42941C33.5288 1.32264 33.5964 1.22957 33.6872 1.16357C33.778 1.09756 33.8873 1.06201 33.9996 1.06201C34.1118 1.06201 34.2212 1.09756 34.312 1.16357C34.4028 1.22957 34.4703 1.32264 34.5049 1.42941L36.112 6.37668H41.4371C41.5506 6.37662 41.6611 6.4129 41.7524 6.4802C41.8438 6.54749 41.9112 6.64227 41.9448 6.75066C41.9784 6.85904 41.9764 6.97533 41.9391 7.0825C41.9018 7.18967 41.8312 7.28208 41.7376 7.34621L37.4195 10.3046L39.084 15.2363C39.1109 15.3161 39.1185 15.4012 39.1061 15.4846C39.0937 15.5679 39.0616 15.6471 39.0125 15.7157C38.9634 15.7842 38.8988 15.84 38.8238 15.8786C38.7489 15.9172 38.6659 15.9374 38.5816 15.9375Z" fill="#171D20"/>
<path d="M63.5816 15.9375C63.4698 15.938 63.3607 15.9031 63.2698 15.8379L58.9996 12.7421L54.7293 15.8379C54.6381 15.9041 54.5282 15.9395 54.4155 15.9391C54.3028 15.9387 54.1931 15.9025 54.1024 15.8356C54.0116 15.7688 53.9445 15.6748 53.9107 15.5673C53.8768 15.4598 53.8781 15.3444 53.9142 15.2376L55.5797 10.3046L51.2633 7.34455C51.1698 7.28051 51.0992 7.18824 51.0619 7.08123C51.0245 6.97423 51.0224 6.85809 51.0558 6.74979C51.0892 6.64149 51.1563 6.5467 51.2474 6.47927C51.3385 6.41185 51.4488 6.37532 51.5621 6.37502H56.8872L58.4942 1.42941C58.5288 1.32264 58.5964 1.22957 58.6872 1.16357C58.778 1.09756 58.8873 1.06201 58.9996 1.06201C59.1118 1.06201 59.2212 1.09756 59.312 1.16357C59.4028 1.22957 59.4703 1.32264 59.5049 1.42941L61.112 6.37668H66.4371C66.5506 6.37662 66.6611 6.4129 66.7524 6.4802C66.8438 6.54749 66.9112 6.64227 66.9448 6.75066C66.9784 6.85904 66.9764 6.97533 66.9391 7.0825C66.9018 7.18967 66.8312 7.28208 66.7376 7.34621L62.4195 10.3046L64.084 15.2363C64.1109 15.3161 64.1185 15.4012 64.1061 15.4846C64.0937 15.5679 64.0616 15.6471 64.0125 15.7157C63.9634 15.7842 63.8988 15.84 63.8238 15.8786C63.7489 15.9172 63.6659 15.9374 63.5816 15.9375Z" fill="#171D20"/>
<path d="M88.5816 15.9375C88.4698 15.938 88.3607 15.9031 88.2698 15.8379L83.9996 12.7421L79.7293 15.8379C79.6381 15.9041 79.5282 15.9395 79.4155 15.9391C79.3028 15.9387 79.1931 15.9025 79.1024 15.8356C79.0116 15.7688 78.9445 15.6748 78.9107 15.5673C78.8768 15.4598 78.8781 15.3444 78.9142 15.2376L80.5797 10.3046L76.2633 7.34455C76.1698 7.28051 76.0992 7.18824 76.0619 7.08123C76.0245 6.97423 76.0224 6.85809 76.0558 6.74979C76.0892 6.64149 76.1563 6.5467 76.2474 6.47927C76.3385 6.41185 76.4488 6.37532 76.5621 6.37502H81.8872L83.4942 1.42941C83.5288 1.32264 83.5964 1.22957 83.6872 1.16357C83.778 1.09756 83.8873 1.06201 83.9996 1.06201C84.1118 1.06201 84.2212 1.09756 84.312 1.16357C84.4028 1.22957 84.4703 1.32264 84.5049 1.42941L86.112 6.37668H91.4371C91.5506 6.37662 91.6611 6.4129 91.7524 6.4802C91.8438 6.54749 91.9112 6.64227 91.9448 6.75066C91.9784 6.85904 91.9764 6.97533 91.9391 7.0825C91.9018 7.18967 91.8312 7.28208 91.7376 7.34621L87.4195 10.3046L89.084 15.2363C89.1109 15.3161 89.1185 15.4012 89.1061 15.4846C89.0937 15.5679 89.0616 15.6471 89.0125 15.7157C88.9634 15.7842 88.8988 15.84 88.8238 15.8786C88.7489 15.9172 88.6659 15.9374 88.5816 15.9375Z" fill="#171D20"/>
<path d="M113.582 15.9375C113.47 15.938 113.361 15.9031 113.27 15.8379L109 12.7421L104.729 15.8379C104.638 15.9041 104.528 15.9395 104.415 15.9391C104.303 15.9387 104.193 15.9025 104.102 15.8356C104.012 15.7688 103.944 15.6748 103.911 15.5673C103.877 15.4598 103.878 15.3444 103.914 15.2376L105.58 10.3046L101.263 7.34455C101.17 7.28051 101.099 7.18824 101.062 7.08123C101.025 6.97423 101.022 6.85809 101.056 6.74979C101.089 6.64149 101.156 6.5467 101.247 6.47927C101.338 6.41185 101.449 6.37532 101.562 6.37502H106.887L108.494 1.42941C108.529 1.32264 108.596 1.22957 108.687 1.16357C108.778 1.09756 108.887 1.06201 109 1.06201C109.112 1.06201 109.221 1.09756 109.312 1.16357C109.403 1.22957 109.47 1.32264 109.505 1.42941L111.112 6.37668H116.437C116.551 6.37662 116.661 6.4129 116.752 6.4802C116.844 6.54749 116.911 6.64227 116.945 6.75066C116.978 6.85904 116.976 6.97533 116.939 7.0825C116.902 7.18967 116.831 7.28208 116.738 7.34621L112.42 10.3046L114.084 15.2363C114.111 15.3161 114.119 15.4012 114.106 15.4846C114.094 15.5679 114.062 15.6471 114.013 15.7157C113.963 15.7842 113.899 15.84 113.824 15.8786C113.749 15.9172 113.666 15.9374 113.582 15.9375Z" fill="#171D20"/>
</svg>
