<svg width="24" height="23" viewBox="0 0 24 23" fill="none" xmlns="http://www.w3.org/2000/svg">
<path d="M19.2375 2.87232C19.0068 2.88911 18.7803 2.94324 18.567 3.0326H18.5641C18.3592 3.11382 17.3853 3.52351 15.9047 4.14451L10.5989 6.3791C6.79167 7.98192 3.04914 9.56029 3.04914 9.56029L3.0937 9.54304C3.0937 9.54304 2.83567 9.62785 2.56614 9.81257C2.39963 9.91853 2.25634 10.0572 2.14495 10.2201C2.0127 10.4142 1.90633 10.711 1.94586 11.0179C2.01055 11.5369 2.34692 11.8481 2.58842 12.0199C2.8328 12.1938 3.06567 12.275 3.06567 12.275H3.07142L6.58108 13.4574C6.73848 13.9626 7.65058 16.9613 7.8698 17.652C7.99917 18.0645 8.12495 18.3226 8.28236 18.5195C8.35855 18.6201 8.44767 18.7042 8.55477 18.7718C8.61044 18.8042 8.6698 18.8298 8.73158 18.848L8.69564 18.8394C8.70642 18.8422 8.71505 18.8509 8.72295 18.8537C8.7517 18.8616 8.77111 18.8645 8.80777 18.8703C9.36336 19.0384 9.8097 18.6934 9.8097 18.6934L9.83486 18.6733L11.907 16.7866L15.38 19.451L15.4591 19.4848C16.1829 19.8025 16.916 19.6257 17.3034 19.3137C17.6937 18.9996 17.8453 18.5979 17.8453 18.5979L17.8705 18.5332L20.5543 4.7842C20.6305 4.44495 20.6499 4.12726 20.5658 3.81892C20.4791 3.50685 20.2789 3.23846 20.0045 3.06639C19.774 2.92631 19.5069 2.8587 19.2375 2.87232ZM19.165 4.34576C19.1621 4.39104 19.1707 4.38601 19.1506 4.47298V4.48089L16.4919 18.0868C16.4804 18.1062 16.461 18.1486 16.4078 18.191C16.3518 18.2356 16.3072 18.2636 16.0736 18.1709L11.8258 14.9143L9.25986 17.2531L9.79892 13.8103L16.7392 7.34151C17.0252 7.07557 16.9296 7.01951 16.9296 7.01951C16.9498 6.6932 16.4977 6.92392 16.4977 6.92392L7.74617 12.3454L7.7433 12.3311L3.54867 10.9187V10.9159L3.53789 10.9137C3.54524 10.9113 3.55244 10.9084 3.55945 10.9051L3.58245 10.8936L3.60473 10.8857C3.60473 10.8857 7.35014 9.30729 11.1574 7.70448C13.0635 6.90164 14.984 6.09304 16.461 5.46917C17.337 5.10045 18.2139 4.73389 19.0916 4.36948C19.1506 4.34648 19.1225 4.34648 19.165 4.34648V4.34576Z" fill="#87A9BC"/>
</svg>
